<?xml version="1.0" encoding="UTF-8"?>
<svg version="1.1" xmlns="http://www.w3.org/2000/svg" width="1024" height="1024">
<path d="M0 0 C337.92 0 675.84 0 1024 0 C1024 337.92 1024 675.84 1024 1024 C686.08 1024 348.16 1024 0 1024 C0 686.08 0 348.16 0 0 Z " fill="#FEFEFE" transform="translate(0,0)"/>
<path d="M0 0 C1.27407211 -0.0038269 2.54814423 -0.00765381 3.86082458 -0.01159668 C6.54148958 -0.01430657 9.22067217 -0.0090604 11.90112305 0.00976562 C15.31271607 0.03257747 18.72305145 0.01939462 22.13459873 -0.00452423 C25.42310902 -0.02256382 28.71147321 -0.0098851 32 0 C33.21273087 -0.00809692 34.42546173 -0.01619385 35.67494202 -0.02453613 C45.81474046 0.08680471 53.14807484 2.55163974 60.640625 9.4609375 C66.64819587 16.39778403 68.81529066 24.35732581 68.70703125 33.33203125 C68.06026498 40.8991966 64.80561649 47.22149152 59.609375 52.70703125 C52.01143714 59.07729513 45.3097959 60.54362978 35.43359375 61.53125 C35.43359375 69.45125 35.43359375 77.37125 35.43359375 85.53125 C38.73359375 85.53125 42.03359375 85.53125 45.43359375 85.53125 C49.42113597 85.97920015 53.31696112 86.78369583 57.24609375 87.59375 C58.33559326 87.81708008 59.42509277 88.04041016 60.54760742 88.27050781 C116.46844586 100.23523127 163.92532142 136.07626827 194.79882812 183.63427734 C209.84284942 207.40900308 218.2750217 233.01714795 223.43359375 260.53125 C223.56781738 261.2329834 223.70204102 261.9347168 223.84033203 262.65771484 C228.23061164 286.89378722 226.4064159 313.60694952 221.43359375 337.53125 C221.2516748 338.42440918 221.06975586 339.31756836 220.88232422 340.23779297 C209.48478316 394.5161632 174.27003561 441.77997444 128.45117188 472.11303711 C81.99868597 502.12255413 24.9830379 511.42253891 -28.953125 499.91015625 C-68.10393896 490.75318074 -99.53679584 470.94727613 -129.48828125 445 C-142.12827407 434.20476289 -155.83780869 425.2140338 -170.56640625 417.53125 C-171.22688965 417.18465332 -171.88737305 416.83805664 -172.56787109 416.48095703 C-204.11599465 400.16666141 -239.8656693 394.74587676 -275.02734375 394.3046875 C-276.66459915 394.28233032 -276.66459915 394.28233032 -278.33493042 394.25952148 C-283.81958531 394.19071243 -289.30155877 394.1563369 -294.78662109 394.17285156 C-296.83301115 394.16002735 -298.87939815 394.1467024 -300.92578125 394.1328125 C-301.85079437 394.1462973 -302.7758075 394.1597821 -303.72885132 394.17367554 C-311.30104504 394.0872017 -317.79543289 391.90088633 -323.51483154 386.79019165 C-327.61041379 382.4771912 -329.5264657 378.11448821 -329.59375 372.078125 C-329.15891835 364.63023925 -326.6625424 360.31663194 -321.19140625 355.28125 C-315.72960792 350.46658417 -309.58848781 350.23581319 -302.66210938 350.24414062 C-301.78639282 350.23730759 -300.91067627 350.23047455 -300.00842285 350.22343445 C-298.11294606 350.20988318 -296.21743309 350.20080636 -294.32191467 350.19572449 C-291.30981962 350.18739537 -288.29802199 350.16684872 -285.28601074 350.14318848 C-278.87952052 350.09503994 -272.47299996 350.06211097 -266.06640625 350.03125 C-258.66477769 349.99542398 -251.263293 349.9531632 -243.86180115 349.89530945 C-240.91635101 349.87546287 -237.97101524 349.8669639 -235.0255127 349.85900879 C-213.07086476 350.07054718 -213.07086476 350.07054718 -193.56640625 341.21875 C-191.00158805 337.77227554 -190.49351349 335.83192303 -190.56640625 331.53125 C-192.49203163 324.42783194 -197.71089023 319.64801017 -203.56640625 315.53125 C-220.12282164 306.25882014 -236.36042694 305.38154819 -254.93847656 305.3894043 C-256.44448955 305.38636485 -257.95050162 305.38284126 -259.45651245 305.37887573 C-262.67461495 305.37105063 -265.89270669 305.36586642 -269.11081696 305.36258507 C-274.20515761 305.35662494 -279.29943028 305.34004142 -284.39373779 305.32124329 C-286.14426037 305.31490804 -287.89478299 305.30858239 -289.64530563 305.30226612 C-290.52121274 305.29910031 -291.39711986 305.2959345 -292.29956961 305.29267275 C-304.14175891 305.25072083 -315.98391303 305.21758838 -327.82617188 305.20532227 C-335.84108988 305.1969358 -343.85583548 305.17443514 -351.87066722 305.1359666 C-356.1029066 305.11624852 -360.33488857 305.10378777 -364.56717682 305.10880089 C-368.54339494 305.11345492 -372.5191236 305.09960136 -376.49524307 305.07178879 C-377.94962838 305.06489338 -379.40406448 305.06473266 -380.85844803 305.07198906 C-389.85115681 305.11231158 -396.54507652 304.86432797 -403.58984375 298.78515625 C-408.23816722 292.96803468 -410.0656516 288.6374043 -409.875 281.08984375 C-409.06513965 274.3751788 -405.57629924 270.02779429 -400.54296875 265.7578125 C-396.1648004 263.04092542 -391.78994245 262.28133341 -386.70680237 262.27296448 C-385.55907852 262.26613647 -384.41135468 262.25930847 -383.22885132 262.25227356 C-381.98358673 262.25482651 -380.73832214 262.25737946 -379.45532227 262.26000977 C-378.11918319 262.25561823 -376.78304684 262.25031452 -375.44691467 262.24417114 C-372.57574861 262.23269707 -369.70465609 262.22721358 -366.83346748 262.22628975 C-362.2795308 262.22434063 -357.72574459 262.20623785 -353.17185974 262.18553162 C-341.85401552 262.13644324 -330.53613027 262.10556098 -319.21820068 262.08422852 C-310.43214855 262.0676377 -301.64622555 262.04461468 -292.86025947 262.00120777 C-288.34840074 261.97961809 -283.83678839 261.97135608 -279.32488167 261.97360051 C-276.49540368 261.97191373 -273.6660815 261.95774339 -270.83666039 261.94038773 C-268.93236281 261.9322698 -267.02801989 261.9386515 -265.12371826 261.945755 C-253.87371779 261.85323276 -240.42782244 261.2706781 -231.56640625 253.53125 C-227.42433576 249.1711758 -225.49957365 245.20746989 -225.19140625 239.21875 C-225.37469848 232.72804854 -227.92485187 227.82613233 -232.50390625 223.28125 C-241.67553317 216.3253865 -253.2248245 215.97291789 -264.265625 216.09765625 C-265.63557039 216.09536121 -267.0055136 216.09058306 -268.3754425 216.08348083 C-273.39479392 216.06209748 -278.41379539 216.07911353 -283.43310547 216.10498047 C-287.7011823 216.12652432 -291.96830584 216.12815769 -296.23636818 216.10206413 C-298.21148071 216.09777386 -300.18658987 216.12228121 -302.1615448 216.14759827 C-309.95521297 216.10454075 -316.14339865 215.19743043 -322.56640625 210.53125 C-327.92837636 204.78317508 -329.95433026 200.02537937 -329.83984375 192.16015625 C-329.13280752 185.36250788 -325.56354274 181.00914991 -320.4453125 176.7578125 C-315.61000227 173.60128982 -311.14015551 173.24072134 -305.48510742 173.26000977 C-304.68412125 173.25478302 -303.88313507 173.24955627 -303.05787659 173.24417114 C-301.32009521 173.23394621 -299.58228334 173.22815337 -297.84447289 173.22628975 C-295.06913212 173.22260279 -292.29414144 173.20580222 -289.51887512 173.18553162 C-281.62780383 173.13041549 -273.73667715 173.09982035 -265.84545898 173.07495117 C-224.00026243 172.92969762 -183.99398899 170.21491415 -146.56640625 149.53125 C-145.93927734 149.18868164 -145.31214844 148.84611328 -144.66601562 148.49316406 C-137.43351042 144.49703734 -130.81822832 140.10026141 -124.44140625 134.84375 C-92.93920751 108.95284144 -47.60728412 84.53125 -5.56640625 84.53125 C-5.56640625 76.94125 -5.56640625 69.35125 -5.56640625 61.53125 C-8.86640625 61.20125 -12.16640625 60.87125 -15.56640625 60.53125 C-23.84641787 57.62205673 -30.90453239 53.30304633 -35.00390625 45.28125 C-38.54426623 37.34322315 -39.08827946 28.43381573 -36.5078125 20.12109375 C-32.10643053 10.686153 -26.14640466 5.067036 -16.48196411 1.35180664 C-11.04889804 -0.17727927 -5.60812459 -0.03750583 0 0 Z " fill="#FEFEFE" transform="translate(587.56640625,228.46875)"/>
<path d="M0 0 C1.27407211 -0.0038269 2.54814423 -0.00765381 3.86082458 -0.01159668 C6.54148958 -0.01430657 9.22067217 -0.0090604 11.90112305 0.00976562 C15.31271607 0.03257747 18.72305145 0.01939462 22.13459873 -0.00452423 C25.42310902 -0.02256382 28.71147321 -0.0098851 32 0 C33.21273087 -0.00809692 34.42546173 -0.01619385 35.67494202 -0.02453613 C45.81474046 0.08680471 53.14807484 2.55163974 60.640625 9.4609375 C66.64819587 16.39778403 68.81529066 24.35732581 68.70703125 33.33203125 C68.06026498 40.8991966 64.80561649 47.22149152 59.609375 52.70703125 C52.01143714 59.07729513 45.3097959 60.54362978 35.43359375 61.53125 C35.43359375 69.45125 35.43359375 77.37125 35.43359375 85.53125 C38.73359375 85.53125 42.03359375 85.53125 45.43359375 85.53125 C49.42113597 85.97920015 53.31696112 86.78369583 57.24609375 87.59375 C58.33559326 87.81708008 59.42509277 88.04041016 60.54760742 88.27050781 C116.46844586 100.23523127 163.92532142 136.07626827 194.79882812 183.63427734 C209.84284942 207.40900308 218.2750217 233.01714795 223.43359375 260.53125 C223.56781738 261.2329834 223.70204102 261.9347168 223.84033203 262.65771484 C228.23061164 286.89378722 226.4064159 313.60694952 221.43359375 337.53125 C221.2516748 338.42440918 221.06975586 339.31756836 220.88232422 340.23779297 C209.48478316 394.5161632 174.27003561 441.77997444 128.45117188 472.11303711 C81.99868597 502.12255413 24.9830379 511.42253891 -28.953125 499.91015625 C-68.10393896 490.75318074 -99.53679584 470.94727613 -129.48828125 445 C-142.12827407 434.20476289 -155.83780869 425.2140338 -170.56640625 417.53125 C-171.22688965 417.18465332 -171.88737305 416.83805664 -172.56787109 416.48095703 C-204.11599465 400.16666141 -239.8656693 394.74587676 -275.02734375 394.3046875 C-276.66459915 394.28233032 -276.66459915 394.28233032 -278.33493042 394.25952148 C-283.81958531 394.19071243 -289.30155877 394.1563369 -294.78662109 394.17285156 C-296.83301115 394.16002735 -298.87939815 394.1467024 -300.92578125 394.1328125 C-301.85079437 394.1462973 -302.7758075 394.1597821 -303.72885132 394.17367554 C-311.30104504 394.0872017 -317.79543289 391.90088633 -323.51483154 386.79019165 C-327.61041379 382.4771912 -329.5264657 378.11448821 -329.59375 372.078125 C-329.15891835 364.63023925 -326.6625424 360.31663194 -321.19140625 355.28125 C-315.72960792 350.46658417 -309.58848781 350.23581319 -302.66210938 350.24414062 C-301.78639282 350.23730759 -300.91067627 350.23047455 -300.00842285 350.22343445 C-298.11294606 350.20988318 -296.21743309 350.20080636 -294.32191467 350.19572449 C-291.30981962 350.18739537 -288.29802199 350.16684872 -285.28601074 350.14318848 C-278.87952052 350.09503994 -272.47299996 350.06211097 -266.06640625 350.03125 C-258.66477769 349.99542398 -251.263293 349.9531632 -243.86180115 349.89530945 C-240.91635101 349.87546287 -237.97101524 349.8669639 -235.0255127 349.85900879 C-213.07086476 350.07054718 -213.07086476 350.07054718 -193.56640625 341.21875 C-191.00158805 337.77227554 -190.49351349 335.83192303 -190.56640625 331.53125 C-192.49203163 324.42783194 -197.71089023 319.64801017 -203.56640625 315.53125 C-220.12282164 306.25882014 -236.36042694 305.38154819 -254.93847656 305.3894043 C-256.44448955 305.38636485 -257.95050162 305.38284126 -259.45651245 305.37887573 C-262.67461495 305.37105063 -265.89270669 305.36586642 -269.11081696 305.36258507 C-274.20515761 305.35662494 -279.29943028 305.34004142 -284.39373779 305.32124329 C-286.14426037 305.31490804 -287.89478299 305.30858239 -289.64530563 305.30226612 C-290.52121274 305.29910031 -291.39711986 305.2959345 -292.29956961 305.29267275 C-304.14175891 305.25072083 -315.98391303 305.21758838 -327.82617188 305.20532227 C-335.84108988 305.1969358 -343.85583548 305.17443514 -351.87066722 305.1359666 C-356.1029066 305.11624852 -360.33488857 305.10378777 -364.56717682 305.10880089 C-368.54339494 305.11345492 -372.5191236 305.09960136 -376.49524307 305.07178879 C-377.94962838 305.06489338 -379.40406448 305.06473266 -380.85844803 305.07198906 C-389.85115681 305.11231158 -396.54507652 304.86432797 -403.58984375 298.78515625 C-408.23816722 292.96803468 -410.0656516 288.6374043 -409.875 281.08984375 C-409.06513965 274.3751788 -405.57629924 270.02779429 -400.54296875 265.7578125 C-396.1648004 263.04092542 -391.78994245 262.28133341 -386.70680237 262.27296448 C-385.55907852 262.26613647 -384.41135468 262.25930847 -383.22885132 262.25227356 C-381.98358673 262.25482651 -380.73832214 262.25737946 -379.45532227 262.26000977 C-378.11918319 262.25561823 -376.78304684 262.25031452 -375.44691467 262.24417114 C-372.57574861 262.23269707 -369.70465609 262.22721358 -366.83346748 262.22628975 C-362.2795308 262.22434063 -357.72574459 262.20623785 -353.17185974 262.18553162 C-341.85401552 262.13644324 -330.53613027 262.10556098 -319.21820068 262.08422852 C-310.43214855 262.0676377 -301.64622555 262.04461468 -292.86025947 262.00120777 C-288.34840074 261.97961809 -283.83678839 261.97135608 -279.32488167 261.97360051 C-276.49540368 261.97191373 -273.6660815 261.95774339 -270.83666039 261.94038773 C-268.93236281 261.9322698 -267.02801989 261.9386515 -265.12371826 261.945755 C-253.87371779 261.85323276 -240.42782244 261.2706781 -231.56640625 253.53125 C-227.42433576 249.1711758 -225.49957365 245.20746989 -225.19140625 239.21875 C-225.37469848 232.72804854 -227.92485187 227.82613233 -232.50390625 223.28125 C-241.67553317 216.3253865 -253.2248245 215.97291789 -264.265625 216.09765625 C-265.63557039 216.09536121 -267.0055136 216.09058306 -268.3754425 216.08348083 C-273.39479392 216.06209748 -278.41379539 216.07911353 -283.43310547 216.10498047 C-287.7011823 216.12652432 -291.96830584 216.12815769 -296.23636818 216.10206413 C-298.21148071 216.09777386 -300.18658987 216.12228121 -302.1615448 216.14759827 C-309.95521297 216.10454075 -316.14339865 215.19743043 -322.56640625 210.53125 C-327.92837636 204.78317508 -329.95433026 200.02537937 -329.83984375 192.16015625 C-329.13280752 185.36250788 -325.56354274 181.00914991 -320.4453125 176.7578125 C-315.61000227 173.60128982 -311.14015551 173.24072134 -305.48510742 173.26000977 C-304.68412125 173.25478302 -303.88313507 173.24955627 -303.05787659 173.24417114 C-301.32009521 173.23394621 -299.58228334 173.22815337 -297.84447289 173.22628975 C-295.06913212 173.22260279 -292.29414144 173.20580222 -289.51887512 173.18553162 C-281.62780383 173.13041549 -273.73667715 173.09982035 -265.84545898 173.07495117 C-224.00026243 172.92969762 -183.99398899 170.21491415 -146.56640625 149.53125 C-145.93927734 149.18868164 -145.31214844 148.84611328 -144.66601562 148.49316406 C-137.43351042 144.49703734 -130.81822832 140.10026141 -124.44140625 134.84375 C-92.93920751 108.95284144 -47.60728412 84.53125 -5.56640625 84.53125 C-5.56640625 76.94125 -5.56640625 69.35125 -5.56640625 61.53125 C-8.86640625 61.20125 -12.16640625 60.87125 -15.56640625 60.53125 C-23.84641787 57.62205673 -30.90453239 53.30304633 -35.00390625 45.28125 C-38.54426623 37.34322315 -39.08827946 28.43381573 -36.5078125 20.12109375 C-32.10643053 10.686153 -26.14640466 5.067036 -16.48196411 1.35180664 C-11.04889804 -0.17727927 -5.60812459 -0.03750583 0 0 Z M-91.56640625 160.53125 C-92.14374512 161.00320801 -92.72108398 161.47516602 -93.31591797 161.96142578 C-128.02145737 190.35346084 -149.10460627 230.69079394 -154.25292969 275.13623047 C-158.27158858 318.65918258 -146.80736934 363.23879382 -119.12890625 397.48046875 C-115.20276665 402.15472946 -111.15187525 406.68084993 -106.93554688 411.09472656 C-105.60835557 412.48723613 -104.29800795 413.89573908 -102.98828125 415.3046875 C-74.16260177 445.42493343 -31.23091824 463.37387703 10.23046875 464.734375 C58.71932325 465.49916806 101.9427991 446.81694865 136.71606445 413.58544922 C148.56067294 401.9958954 157.8103121 388.97035294 165.49023438 374.31982422 C166.32731911 372.73274276 167.19840331 371.16369767 168.07421875 369.59765625 C174.69662808 357.31134421 178.74019382 343.47656192 181.80859375 329.90625 C181.96408691 329.22159668 182.11958008 328.53694336 182.27978516 327.83154297 C186.92189195 305.80938833 186.79944676 278.41409531 181.43359375 256.53125 C181.13557861 255.28529053 181.13557861 255.28529053 180.83154297 254.01416016 C173.2038679 222.99494823 157.53729189 196.41969482 135.43359375 173.53125 C134.6240625 172.67015625 133.81453125 171.8090625 132.98046875 170.921875 C105.10841154 141.97089945 63.5682854 124.19022649 23.4765625 123.328125 C-18.46700984 122.90682275 -58.77932918 133.1504996 -91.56640625 160.53125 Z " fill="#050506" transform="translate(587.56640625,228.46875)"/>
<path d="M0 0 C6.08626641 4.48862148 10.66017176 10.10047746 12.1875 17.61328125 C13.25947348 27.0647657 10.84673487 34.35980297 5 41.78515625 C1.01869466 45.80078319 -4.24094399 48.60529782 -9.8125 49.61328125 C-12.01521085 49.45972995 -14.21706397 49.29365859 -16.41821289 49.11914062 C-21.98203283 49.09432322 -24.90186531 49.70256963 -29.14624023 53.34179688 C-30.84092479 55.03198093 -32.49806001 56.7604294 -34.12109375 58.51953125 C-35.01691666 59.43279175 -35.91273956 60.34605225 -36.83570862 61.2869873 C-39.20161554 63.70028772 -41.52214143 66.15290062 -43.83538818 68.61657715 C-46.18025162 71.09751693 -48.567855 73.53655463 -50.95117188 75.98046875 C-58.43676803 83.68582806 -65.81341114 91.46072889 -72.8125 99.61328125 C-64.66753541 99.75234162 -56.52306715 99.85893022 -48.37720871 99.92415428 C-44.59463304 99.95546014 -40.81286977 99.99791538 -37.03076172 100.06591797 C-33.38025189 100.13114316 -29.73052298 100.16699291 -26.0794754 100.18254471 C-24.68711296 100.19362595 -23.29479301 100.21526656 -21.90276337 100.24766159 C-14.62100693 100.78157016 -14.62100693 100.78157016 -8.11480713 98.30833435 C-6.85439742 96.54038896 -6.85439742 96.54038896 -5.8125 93.61328125 C0.56788684 86.71013163 6.69119996 83.55926156 16.0625 83.17578125 C24.27684358 83.43441927 30.50110849 85.69790828 36.5625 91.30078125 C43.29588908 98.72931779 44.84311477 105.33000472 44.5 115.3125 C43.72348658 123.51442296 40.34106034 129.11772538 34.1875 134.61328125 C26.22215938 139.6847917 18.52455792 140.46392425 9.1875 139.61328125 C1.18463297 137.37509879 -3.91841678 132.1174284 -8.8125 125.61328125 C-9.1425 124.95328125 -9.4725 124.29328125 -9.8125 123.61328125 C-35.5525 123.61328125 -61.2925 123.61328125 -87.8125 123.61328125 C-72.63942344 138.96272528 -72.63942344 138.96272528 -56.8125 153.61328125 C-55.04003439 155.48646408 -53.29871101 157.38986264 -51.59765625 159.328125 C-41.88022326 171.27452848 -41.88022326 171.27452848 -28.84765625 177.97265625 C-25.95344099 178.02172134 -23.2158217 177.65863805 -20.3671875 177.171875 C-15.23611236 176.36556319 -12.04821669 177.84081215 -7.8125 180.61328125 C-6.905 181.19078125 -5.9975 181.76828125 -5.0625 182.36328125 C0.96404227 188.38982352 4.1962831 195.42009844 4.5625 203.92578125 C4.36548746 212.47844344 0.88819766 218.72397992 -4.90625 224.88671875 C-10.93086157 230.3434366 -17.78388572 231.88202148 -25.8125 231.61328125 C-33.68748268 230.40353502 -40.50742985 226.95426892 -45.3828125 220.55078125 C-48.13231883 216.27726284 -50.00744582 213.2014725 -49.36523438 207.96948242 C-48.54352808 200.99874256 -48.27516473 195.05832763 -52.6796875 189.25244141 C-56.58027498 184.81474614 -60.92769468 180.87484418 -65.3125 176.92578125 C-66.79051855 175.52967659 -68.26451727 174.12930341 -69.734375 172.72460938 C-75.72698792 167.03798097 -81.86552444 161.53288162 -88.10946655 156.12400818 C-90.82932674 153.71127457 -93.28134334 151.067312 -95.7578125 148.41015625 C-100.27921385 144.45607903 -104.46220594 143.24602604 -110.390625 143.2421875 C-111.63457031 143.22478516 -112.87851562 143.20738281 -114.16015625 143.18945312 C-116.74608312 143.18039332 -119.33202634 143.17513813 -121.91796875 143.17382812 C-132.72477281 143.0121164 -141.03512465 141.1581538 -149.0546875 133.609375 C-155.41558768 126.38621946 -157.21262652 118.89145663 -157.0859375 109.453125 C-156.31315933 101.42727167 -151.70886871 94.89928367 -145.8125 89.61328125 C-138.49809672 84.63405064 -132.76310988 83.48540113 -123.98828125 83.5078125 C-122.21938888 83.49435105 -120.45050785 83.47932692 -118.68164062 83.46289062 C-115.90788466 83.44012482 -113.13540866 83.42573435 -110.36157227 83.43823242 C-107.67372104 83.44711114 -104.98837289 83.4180046 -102.30078125 83.3828125 C-101.07685417 83.40115898 -101.07685417 83.40115898 -99.82820129 83.4198761 C-85.36828574 83.11974737 -74.39425424 68.1772025 -64.76196289 58.77783203 C-62.76092179 56.83026381 -60.73756043 54.91143603 -58.68969727 53.01318359 C-46.23095047 42.49890749 -46.23095047 42.49890749 -39.58081055 28.41113281 C-39.46577074 25.29369435 -39.75148645 22.39920144 -40.27783203 19.33007812 C-40.97568603 14.47887751 -39.86605715 11.6898424 -37.36328125 7.59375 C-28.22153881 -4.08096894 -13.19487452 -7.70424417 0 0 Z " fill="#060606" transform="translate(694.8125,406.38671875)"/>
<path d="M0 0 C0.66 0.33 1.32 0.66 2 1 C-0.35953094 3.35953094 -1.77895617 3.49141413 -5 4 C-3.36587557 2.29159719 -2.13093906 1.06546953 0 0 Z M-7 4 C-6.34 4 -5.68 4 -5 4 C-5.33 4.99 -5.66 5.98 -6 7 C-6.66 6.34 -7.32 5.68 -8 5 C-7.67 4.67 -7.34 4.34 -7 4 Z " fill="#0B0B0B" transform="translate(670,404)"/>
</svg>
